# xmcd
#
# Track frame offsets: 
#        150
#        6504
#        12248
#        30804
#        39918
#        57015
#        78714
#        89247
#        99154
#        109544
#        119341
#        135286
#        154486
#        173250
#
# Disc length: 2460 seconds
#
# Revision: 0
# Processed by: cddbd v1.5.2PL0 Copyright (c) Steve Scherf et al.
# Submitted via: ExactAudioCopy v1.1
#
DISCID=9c099a0e
DTITLE=Slackeye Slim - El Santo Grial: La Pistola Piadosa
DYEAR=2011
DGENRE=Country
TTITLE0=No One Knows My Name
TTITLE1=Come One! Come All!
TTITLE2=Introducing Drake Savage
TTITLE3=The Chosen One (Part 1)
TTITLE4=Prayer
TTITLE5=Vengeance Gonna Be My Name
TTITLE6=El Mundo, Mi Enimigo
TTITLE7=El Santo Grial: La Pistola Piadosa
TTITLE8=The Chosen One (Part 2)
TTITLE9=Judgement Day
TTITLE10=Make It Right
TTITLE11=Tomorrow Morning's Gonna Come
TTITLE12=The Chosen One (Part 3)
TTITLE13=A Song Called Love
EXTD=
EXTT0=
EXTT1=
EXTT2=
EXTT3=
EXTT4=
EXTT5=
EXTT6=
EXTT7=
EXTT8=
EXTT9=
EXTT10=
EXTT11=
EXTT12=
EXTT13=
PLAYORDER=
